<mxfile host="app.diagrams.net" modified="2023-09-11T16:28:56.121Z" agent="Mozilla/5.0 (Windows NT 10.0; Win64; x64) AppleWebKit/537.36 (KHTML, like Gecko) Chrome/116.0.0.0 Safari/537.36" etag="HMgKei-DFqGtu-8vFC8Y" version="21.7.4" type="device">
  <diagram name="Страница — 1" id="tgao7RHI553R7ob8Ew8g">
    <mxGraphModel dx="2261" dy="790" grid="1" gridSize="10" guides="1" tooltips="1" connect="1" arrows="1" fold="1" page="1" pageScale="1" pageWidth="827" pageHeight="1169" math="0" shadow="0">
      <root>
        <mxCell id="0" />
        <mxCell id="1" parent="0" />
        <mxCell id="MKsGSR7RSUnT6GMLL6Nr-1" value="АРХИТЕКТУРНЫЕ ПАТТЕРНЫ Architectural Patterns" style="text;html=1;align=center;verticalAlign=middle;resizable=0;points=[];autosize=1;strokeColor=none;fillColor=none;fontStyle=1;fontSize=16;" vertex="1" parent="1">
          <mxGeometry x="170" y="40" width="430" height="30" as="geometry" />
        </mxCell>
        <mxCell id="MKsGSR7RSUnT6GMLL6Nr-2" value="P - Prezenter" style="rounded=0;whiteSpace=wrap;html=1;" vertex="1" parent="1">
          <mxGeometry x="120" y="180" width="120" height="60" as="geometry" />
        </mxCell>
        <mxCell id="MKsGSR7RSUnT6GMLL6Nr-3" value="V - viver" style="rounded=0;whiteSpace=wrap;html=1;" vertex="1" parent="1">
          <mxGeometry x="120" y="260" width="120" height="60" as="geometry" />
        </mxCell>
        <mxCell id="MKsGSR7RSUnT6GMLL6Nr-4" value="M - Model" style="rounded=0;whiteSpace=wrap;html=1;" vertex="1" parent="1">
          <mxGeometry x="120" y="340" width="120" height="60" as="geometry" />
        </mxCell>
        <mxCell id="MKsGSR7RSUnT6GMLL6Nr-5" value="Architektor" style="ellipse;whiteSpace=wrap;html=1;aspect=fixed;fontStyle=1;fontSize=14;" vertex="1" parent="1">
          <mxGeometry x="440" y="270" width="80" height="80" as="geometry" />
        </mxCell>
        <mxCell id="MKsGSR7RSUnT6GMLL6Nr-9" style="edgeStyle=orthogonalEdgeStyle;rounded=0;orthogonalLoop=1;jettySize=auto;html=1;" edge="1" parent="1" source="MKsGSR7RSUnT6GMLL6Nr-6" target="MKsGSR7RSUnT6GMLL6Nr-5">
          <mxGeometry relative="1" as="geometry" />
        </mxCell>
        <mxCell id="MKsGSR7RSUnT6GMLL6Nr-6" value="MS1" style="rounded=0;whiteSpace=wrap;html=1;fontStyle=1;fontSize=16;" vertex="1" parent="1">
          <mxGeometry x="520" y="180" width="120" height="60" as="geometry" />
        </mxCell>
        <mxCell id="MKsGSR7RSUnT6GMLL6Nr-10" style="edgeStyle=orthogonalEdgeStyle;rounded=0;orthogonalLoop=1;jettySize=auto;html=1;entryX=1;entryY=1;entryDx=0;entryDy=0;" edge="1" parent="1" source="MKsGSR7RSUnT6GMLL6Nr-7" target="MKsGSR7RSUnT6GMLL6Nr-5">
          <mxGeometry relative="1" as="geometry" />
        </mxCell>
        <mxCell id="MKsGSR7RSUnT6GMLL6Nr-7" value="MS2" style="rounded=0;whiteSpace=wrap;html=1;fontSize=16;fontStyle=1" vertex="1" parent="1">
          <mxGeometry x="600" y="340" width="120" height="60" as="geometry" />
        </mxCell>
        <mxCell id="MKsGSR7RSUnT6GMLL6Nr-11" style="edgeStyle=orthogonalEdgeStyle;rounded=0;orthogonalLoop=1;jettySize=auto;html=1;entryX=0.5;entryY=1;entryDx=0;entryDy=0;" edge="1" parent="1" source="MKsGSR7RSUnT6GMLL6Nr-8" target="MKsGSR7RSUnT6GMLL6Nr-5">
          <mxGeometry relative="1" as="geometry" />
        </mxCell>
        <mxCell id="MKsGSR7RSUnT6GMLL6Nr-8" value="MS3" style="rounded=0;whiteSpace=wrap;html=1;fontStyle=1;fontSize=15;" vertex="1" parent="1">
          <mxGeometry x="440" y="470" width="120" height="60" as="geometry" />
        </mxCell>
        <mxCell id="MKsGSR7RSUnT6GMLL6Nr-12" value="Это слои по ответственностям&lt;br&gt;Всего 4 - 5 слоев должно быть не больше" style="text;html=1;align=center;verticalAlign=middle;resizable=0;points=[];autosize=1;strokeColor=none;fillColor=none;" vertex="1" parent="1">
          <mxGeometry x="-10" y="113" width="260" height="40" as="geometry" />
        </mxCell>
        <mxCell id="MKsGSR7RSUnT6GMLL6Nr-13" value="Это своя собственная разработка" style="text;html=1;align=center;verticalAlign=middle;resizable=0;points=[];autosize=1;strokeColor=none;fillColor=none;fontStyle=1;fontSize=17;" vertex="1" parent="1">
          <mxGeometry x="15" y="585" width="310" height="30" as="geometry" />
        </mxCell>
        <mxCell id="MKsGSR7RSUnT6GMLL6Nr-14" value="UI" style="rounded=0;whiteSpace=wrap;html=1;fontStyle=1;fontSize=18;" vertex="1" parent="1">
          <mxGeometry x="110" y="620" width="120" height="60" as="geometry" />
        </mxCell>
        <mxCell id="MKsGSR7RSUnT6GMLL6Nr-15" value="communicaite" style="rounded=0;whiteSpace=wrap;html=1;fontStyle=1;fontSize=18;" vertex="1" parent="1">
          <mxGeometry x="110" y="690" width="120" height="60" as="geometry" />
        </mxCell>
        <mxCell id="MKsGSR7RSUnT6GMLL6Nr-16" value="Domain" style="rounded=0;whiteSpace=wrap;html=1;fontStyle=1;fontSize=18;" vertex="1" parent="1">
          <mxGeometry x="110" y="760" width="120" height="60" as="geometry" />
        </mxCell>
        <mxCell id="MKsGSR7RSUnT6GMLL6Nr-17" value="DAL" style="rounded=0;whiteSpace=wrap;html=1;fontStyle=1;fontSize=18;" vertex="1" parent="1">
          <mxGeometry x="110" y="830" width="120" height="60" as="geometry" />
        </mxCell>
        <mxCell id="MKsGSR7RSUnT6GMLL6Nr-18" value="DTO" style="rounded=0;whiteSpace=wrap;html=1;fontStyle=1;fontSize=18;" vertex="1" parent="1">
          <mxGeometry x="110" y="910" width="120" height="60" as="geometry" />
        </mxCell>
        <mxCell id="MKsGSR7RSUnT6GMLL6Nr-25" style="edgeStyle=orthogonalEdgeStyle;rounded=0;orthogonalLoop=1;jettySize=auto;html=1;entryX=0;entryY=0.5;entryDx=0;entryDy=0;" edge="1" parent="1" source="MKsGSR7RSUnT6GMLL6Nr-19" target="MKsGSR7RSUnT6GMLL6Nr-20">
          <mxGeometry relative="1" as="geometry" />
        </mxCell>
        <mxCell id="MKsGSR7RSUnT6GMLL6Nr-19" value="View" style="rounded=0;whiteSpace=wrap;html=1;" vertex="1" parent="1">
          <mxGeometry x="50" y="1010" width="120" height="60" as="geometry" />
        </mxCell>
        <mxCell id="MKsGSR7RSUnT6GMLL6Nr-22" style="edgeStyle=orthogonalEdgeStyle;rounded=0;orthogonalLoop=1;jettySize=auto;html=1;entryX=1;entryY=0.5;entryDx=0;entryDy=0;" edge="1" parent="1" source="MKsGSR7RSUnT6GMLL6Nr-20" target="MKsGSR7RSUnT6GMLL6Nr-21">
          <mxGeometry relative="1" as="geometry" />
        </mxCell>
        <mxCell id="MKsGSR7RSUnT6GMLL6Nr-24" style="edgeStyle=orthogonalEdgeStyle;rounded=0;orthogonalLoop=1;jettySize=auto;html=1;" edge="1" parent="1" source="MKsGSR7RSUnT6GMLL6Nr-20" target="MKsGSR7RSUnT6GMLL6Nr-19">
          <mxGeometry relative="1" as="geometry" />
        </mxCell>
        <mxCell id="MKsGSR7RSUnT6GMLL6Nr-20" value="Controller" style="rounded=0;whiteSpace=wrap;html=1;" vertex="1" parent="1">
          <mxGeometry x="270" y="1010" width="120" height="60" as="geometry" />
        </mxCell>
        <mxCell id="MKsGSR7RSUnT6GMLL6Nr-23" style="edgeStyle=orthogonalEdgeStyle;rounded=0;orthogonalLoop=1;jettySize=auto;html=1;" edge="1" parent="1" source="MKsGSR7RSUnT6GMLL6Nr-21">
          <mxGeometry relative="1" as="geometry">
            <mxPoint x="330" y="1070" as="targetPoint" />
          </mxGeometry>
        </mxCell>
        <mxCell id="MKsGSR7RSUnT6GMLL6Nr-26" style="rounded=0;orthogonalLoop=1;jettySize=auto;html=1;entryX=0.5;entryY=1;entryDx=0;entryDy=0;edgeStyle=orthogonalEdgeStyle;" edge="1" parent="1" source="MKsGSR7RSUnT6GMLL6Nr-21" target="MKsGSR7RSUnT6GMLL6Nr-19">
          <mxGeometry relative="1" as="geometry">
            <Array as="points">
              <mxPoint x="110" y="1130" />
            </Array>
          </mxGeometry>
        </mxCell>
        <mxCell id="MKsGSR7RSUnT6GMLL6Nr-21" value="Model" style="rounded=0;whiteSpace=wrap;html=1;" vertex="1" parent="1">
          <mxGeometry x="150" y="1100" width="120" height="60" as="geometry" />
        </mxCell>
        <mxCell id="MKsGSR7RSUnT6GMLL6Nr-27" value="Тут смотрим взаимосвязь." style="text;html=1;align=center;verticalAlign=middle;resizable=0;points=[];autosize=1;strokeColor=none;fillColor=none;fontStyle=1;fontSize=14;" vertex="1" parent="1">
          <mxGeometry x="320" y="1090" width="210" height="30" as="geometry" />
        </mxCell>
      </root>
    </mxGraphModel>
  </diagram>
</mxfile>
